<svg clip-rule="evenodd" fill-rule="evenodd" stroke-linejoin="round" stroke-miterlimit="2" viewBox="0 0 100 80" xmlns="http://www.w3.org/2000/svg"><g fill-rule="nonzero" transform="matrix(1.27 0 0 1.27 -192.7859 -10.179271)"><path d="m192.54 56.694h2.303l.422 14.623-4.453.69z" fill="#679a45"/><path d="m175.831 36.412 2.357.017.13 34.578h-4.698z" fill="#679a45"/><path d="m206.598 40.436 2.383-.253-.008 30.824h-4.659z" fill="#679a45"/><path d="m201.594 41.07-3.127-9.402 18.691-.036-3.043 9.479z" fill="#fcd157"/><path d="m170.594 36.573-3.127-9.402 18.691-.036-3.043 9.479z" fill="#fcd157"/><path d="m187.344 56.82-3.127-9.402 18.691-.036-3.043 9.479z" fill="#fcd157"/><g fill="#679a45"><path d="m207.324 48.118-11.852-5.456-3.207 1.495 1.637-4.758 12.418 5.421"/><path d="m205.372 59.502 10.627-11.778 8.474 5.146-7.683-1.683-8.424 8.757z"/><path d="m176.187 46.971 7.994-3.68 3.207 1.495-1.637-4.757-9.968 4.228"/><path d="m177.709 62.08-5.156-20.623-5.956-.297 3.258 2.995 4.589 21.21z"/></g></g></svg>